<?xml version="1.0" encoding="UTF-8"?>
<svg xmlns="http://www.w3.org/2000/svg" width="210" height="71" viewBox="0 0 210 71" fill="none">
  <g clip-path="url(#clip0_8_21)">
    <path d="M87.2 35.7V24.6C87.2 23.8 87.4 23.2 87.9 22.8C88.3 22.4 88.9 22.2 89.6 22.2C90.3 22.2 90.9 22.4 91.3 22.8C91.7 23.2 91.9 23.8 91.9 24.6V35.5C91.9 36.5 92.1 37.3 92.5 38.1C92.9 38.9 93.4 39.5 94.2 39.9C94.9 40.4 95.8 40.6 96.7 40.6C98.1 40.6 99.2 40.1 100.1 39.1C101 38.1 101.4 36.9 101.4 35.5V24.6C101.4 23.8 101.6 23.2 102.1 22.8C102.5 22.4 103.1 22.2 103.8 22.2C104.5 22.2 105.1 22.4 105.5 22.8C105.9 23.2 106.1 23.8 106.1 24.6V35.7C106.1 37 105.9 38.2 105.4 39.3C104.9 40.4 104.2 41.4 103.4 42.2C102.5 43 101.5 43.7 100.4 44.2C99.3 44.7 98 44.9 96.8 44.9C95.1 44.9 93.5 44.5 92.1 43.7C90.7 42.9 89.5 41.8 88.7 40.4C87.6 39 87.2 37.4 87.2 35.7Z" fill="#E01F26"></path>
    <path d="M108.6 42.2V30.3C108.6 29.6 108.8 29 109.2 28.5C109.6 28 110.2 27.8 110.8 27.8C111.4 27.8 111.8 27.9 112.2 28.2C112.6 28.5 112.8 28.9 112.9 29.4C113.8 28.2 115.2 27.6 117.2 27.6C118.4 27.6 119.4 27.8 120.4 28.3C121.3 28.8 122.1 29.5 122.6 30.4C123.1 31.3 123.4 32.4 123.4 33.6V42.2C123.4 42.7 123.3 43.1 123.1 43.5C122.9 43.9 122.6 44.2 122.3 44.4C122 44.6 121.6 44.7 121.1 44.7C120.4 44.7 119.9 44.5 119.5 44C119.1 43.5 118.9 42.9 118.9 42.2V34.4C118.9 33.4 118.6 32.6 118.1 32.1C117.6 31.6 116.9 31.3 116 31.3C115.4 31.3 114.9 31.4 114.5 31.7C114.1 32 113.7 32.3 113.5 32.8C113.3 33.3 113.2 33.8 113.2 34.4V42.2C113.2 42.7 113.1 43.1 112.9 43.5C112.7 43.9 112.4 44.2 112.1 44.4C111.8 44.6 111.4 44.7 110.9 44.7C110.2 44.7 109.7 44.5 109.3 44C108.8 43.6 108.6 43 108.6 42.2Z" fill="#E01F26"></path>
    <path d="M128 21.1C128.4 21.1 128.9 21.2 129.2 21.4C129.6 21.6 129.9 21.9 130.1 22.3C130.3 22.7 130.4 23.1 130.4 23.5C130.4 24.2 130.2 24.8 129.7 25.3C129.2 25.8 128.6 26.1 127.9 26.1C127.2 26.1 126.7 25.8 126.1 25.3C125.6 24.8 125.3 24.2 125.3 23.5C125.3 22.9 125.6 22.3 126.1 21.8C126.8 21.3 127.4 21.1 128 21.1ZM125.8 42.2V30.3C125.8 29.6 126 29 126.4 28.5C126.8 28 127.3 27.8 128 27.8C128.4 27.8 128.8 27.9 129.2 28.1C129.5 28.3 129.8 28.6 130 29C130.2 29.4 130.3 29.8 130.3 30.3V42.2C130.3 42.7 130.2 43.1 130 43.5C129.8 43.9 129.5 44.2 129.2 44.4C128.9 44.6 128.5 44.7 128 44.7C127.3 44.7 126.8 44.5 126.4 44C126 43.6 125.8 43 125.8 42.2Z" fill="#E01F26"></path>
    <path d="M136.3 42.8L131.8 31.2C131.6 30.7 131.5 30.3 131.5 29.9C131.5 29.2 131.7 28.7 132.2 28.3C132.7 27.9 133.2 27.7 133.9 27.7C134.9 27.7 135.5 28.2 135.9 29.3L138.8 38.1H138.9L141.8 29.3C142.1 28.2 142.8 27.7 143.8 27.7C144.4 27.7 145 27.9 145.4 28.3C145.9 28.7 146.1 29.2 146.1 29.9C146.1 30.3 146 30.7 145.8 31.2L141.3 42.8C141.1 43.4 140.8 43.9 140.4 44.2C140.1 44.5 139.5 44.6 138.8 44.6C138.1 44.6 137.6 44.5 137.3 44.2C136.8 44 136.5 43.5 136.3 42.8Z" fill="#E01F26"></path>
    <path d="M160.3 37.7H150.8C151 38.8 151.4 39.6 152.2 40.1C153 40.6 153.9 40.9 155 40.9C155.7 40.9 156.3 40.8 156.7 40.6C157.2 40.4 157.8 40.1 158.5 39.7C159.2 39.3 159.7 39.1 160.1 39.1C160.4 39.1 160.7 39.2 161 39.4C161.3 39.6 161.5 39.8 161.7 40.1C161.9 40.4 162 40.7 162 41C162 41.5 161.8 41.9 161.4 42.4C161 42.9 160.4 43.3 159.7 43.6C159 44 158.2 44.2 157.3 44.5C156.4 44.7 155.6 44.8 154.8 44.8C153.2 44.8 151.7 44.4 150.4 43.7C149.1 43 148.1 41.9 147.4 40.6C146.7 39.3 146.4 37.8 146.4 36.2C146.4 35.1 146.6 34 147 32.9C147.4 31.8 148 30.9 148.7 30.1C149.4 29.3 150.3 28.6 151.3 28.2C152.3 27.7 153.4 27.5 154.5 27.5C155.7 27.5 156.7 27.7 157.8 28.2C158.8 28.7 159.7 29.3 160.4 30.1C161.1 30.9 161.6 31.8 162 32.7C162.4 33.7 162.6 34.6 162.6 35.6C162.2 37.1 161.6 37.7 160.3 37.7ZM150.6 34.8H157.7C157.6 33.8 157.2 33 156.6 32.3C156 31.7 155.2 31.4 154.2 31.4C153.2 31.4 152.4 31.7 151.8 32.4C151.2 32.9 150.8 33.8 150.6 34.8Z" fill="#E01F26"></path>
    <path d="M163.8 42.2V30C163.8 29.3 164 28.7 164.5 28.3C165 27.9 165.5 27.7 166.1 27.7C167.6 27.7 168.3 28.3 168.3 29.6H168.4C168.9 28.9 169.3 28.5 169.8 28.2C170.3 27.9 170.9 27.8 171.5 27.8C172.1 27.8 172.6 28 173 28.4C173.4 28.8 173.7 29.4 173.7 30.2C173.7 30.6 173.6 31 173.4 31.2C173.2 31.4 172.9 31.6 172.5 31.8C172.1 32 171.6 32.1 171.1 32.4C170.2 32.8 169.5 33.2 169.1 33.6C168.6 34 168.4 34.6 168.4 35.4V42.3C168.4 42.8 168.3 43.2 168.1 43.6C167.9 44 167.6 44.3 167.3 44.5C167 44.7 166.6 44.8 166.1 44.8C165.4 44.8 164.9 44.6 164.5 44.1C164 43.6 163.8 43 163.8 42.2Z" fill="#E01F26"></path>
    <path d="M185.4 30.8C185.4 31.3 185.2 31.8 184.9 32.2C184.5 32.6 184.1 32.8 183.6 32.8C183.4 32.8 182.9 32.7 182.3 32.4C181.6 32.1 181.1 31.9 180.8 31.7C180.4 31.6 180 31.5 179.6 31.5C179.2 31.5 178.8 31.6 178.5 31.8C178.2 32 178.1 32.3 178.1 32.7C178.1 33.1 178.5 33.5 179.4 33.9C180.3 34.3 181.2 34.7 182.2 35.1C183.2 35.5 184 36.1 184.8 36.7C185.5 37.4 185.9 38.3 185.9 39.5C185.9 40.5 185.6 41.4 185.1 42.2C184.6 43 183.8 43.6 182.8 44.1C181.8 44.6 180.7 44.8 179.5 44.8C178.6 44.8 177.7 44.7 176.7 44.3C175.7 44 174.9 43.6 174.2 43C173.5 42.5 173.2 41.9 173.2 41.3C173.2 40.9 173.4 40.5 173.7 40C174.1 39.5 174.5 39.3 175.1 39.3C175.5 39.3 175.9 39.4 176.2 39.5C176.5 39.6 176.9 39.8 177.3 40.1C177.8 40.4 178.2 40.6 178.5 40.7C178.8 40.8 179.3 40.9 179.7 40.9C180.4 40.9 180.8 40.8 181.1 40.6C181.4 40.4 181.5 40.1 181.5 39.6C181.5 39.2 181.1 38.8 180.2 38.4C179.3 38 178.4 37.6 177.4 37.2C176.4 36.8 175.5 36.2 174.8 35.5C174.1 34.8 173.8 33.9 173.8 32.7C173.8 31.7 174.1 30.8 174.6 30C175.1 29.2 175.8 28.6 176.8 28.2C177.7 27.8 178.8 27.5 179.9 27.5C180.7 27.5 181.6 27.6 182.4 27.9C183.3 28.1 184 28.5 184.6 29C185.1 29.6 185.4 30.2 185.4 30.8Z" fill="#E01F26"></path>
    <path d="M202.7 30.7V41.8C202.7 42.7 202.6 43.4 202.3 43.9C202.1 44.4 201.5 44.7 200.5 44.7C199.9 44.7 199.4 44.5 199.1 44.2C198.8 43.9 198.5 43.4 198.4 42.8C197.2 44.2 195.8 44.9 194.1 44.9C192.7 44.9 191.5 44.5 190.3 43.8C189.2 43.1 188.3 42 187.6 40.7C187 39.4 186.6 37.9 186.6 36.3C186.6 34.7 186.9 33.2 187.6 31.9C188.3 30.6 189.2 29.5 190.3 28.8C191.4 28 192.7 27.7 194 27.7C194.8 27.7 195.6 27.9 196.4 28.2C197.2 28.5 197.8 29.1 198.3 29.7C198.4 29.2 198.6 28.7 199 28.4C199.4 28 199.9 27.9 200.4 27.9C201.4 27.9 201.9 28.2 202.2 28.7C202.6 29.1 202.7 29.9 202.7 30.7ZM191.3 36.3C191.3 37.1 191.4 37.8 191.7 38.5C192 39.2 192.4 39.8 192.9 40.2C193.4 40.6 194.1 40.8 194.8 40.8C195.9 40.8 196.7 40.3 197.4 39.4C198 38.5 198.3 37.4 198.3 36.2C198.3 35.5 198.2 34.7 197.9 34C197.6 33.3 197.2 32.7 196.7 32.3C196.2 31.9 195.5 31.6 194.8 31.6C194.1 31.6 193.4 31.8 192.9 32.3C192.4 32.7 192 33.3 191.7 34C191.4 34.8 191.3 35.5 191.3 36.3Z" fill="#E01F26"></path>
    <path d="M205.2 42.2V23.1C205.2 22.4 205.4 21.8 205.8 21.3C206.2 20.8 206.7 20.6 207.4 20.6C207.8 20.6 208.2 20.7 208.6 20.9C208.9 21.1 209.2 21.4 209.4 21.8C209.6 22.2 209.7 22.6 209.7 23.1V42.2C209.7 42.7 209.6 43.1 209.4 43.5C209.2 43.9 208.9 44.2 208.6 44.4C208.3 44.6 207.9 44.7 207.4 44.7C206.7 44.7 206.2 44.5 205.8 44C205.4 43.6 205.2 43 205.2 42.2Z" fill="#E01F26"></path>
    <path d="M87.4 68.3V50.8C87.4 50 87.6 49.4 88 49C88.4 48.6 89 48.4 89.8 48.4H95.3C97.8 48.4 99.7 49 101 50.1C102.3 51.2 103 53 103 55.4C103 56.2 102.9 57 102.6 57.7C102.3 58.4 101.9 59 101.4 59.5C100.9 60 100.3 60.4 99.6 60.7C98.9 61 98.2 61.2 97.3 61.4L102.6 67C103 67.4 103.2 67.9 103.2 68.4C103.2 69 103 69.6 102.5 70.1C102 70.6 101.5 70.8 100.8 70.8C100.1 70.8 99.4 70.5 99 70L92.1 61.6H92V68.4C92 69.2 91.8 69.8 91.4 70.2C91 70.6 90.4 70.8 89.7 70.8C89 70.8 88.5 70.6 88 70.2C87.6 69.6 87.4 69 87.4 68.3ZM92.1 52.7V58.2H95.3C96.2 58.2 96.9 58 97.4 57.5C97.9 57 98.2 56.3 98.2 55.5C98.2 54.6 97.9 53.9 97.4 53.5C96.9 53 96.2 52.8 95.3 52.8H92.1V52.7Z" fill="#E01F26"></path>
    <path d="M111.9 53.6C113.1 53.6 114.1 53.8 115.1 54.3C116.1 54.8 117 55.4 117.7 56.2C118.4 57 119 57.9 119.4 59C119.8 60 120 61.1 120 62.3C120 63.5 119.8 64.6 119.4 65.6C119 66.7 118.5 67.6 117.8 68.3C117.1 69.1 116.3 69.7 115.3 70.2C114.3 70.7 113.2 70.9 112 70.9C110.5 70.9 109.1 70.5 107.8 69.7C106.6 68.9 105.6 67.9 105 66.6C104.3 65.3 104 63.8 104 62.3C104 61.2 104.2 60.1 104.6 59.1C105 58.1 105.5 57.1 106.3 56.3C107 55.5 107.9 54.8 108.9 54.4C109.7 53.8 110.8 53.6 111.9 53.6ZM111.9 57.7C111.2 57.7 110.5 57.9 110 58.4C109.5 58.8 109.1 59.4 108.8 60.1C108.5 60.8 108.4 61.5 108.4 62.3C108.4 63.1 108.5 63.8 108.8 64.5C109.1 65.2 109.5 65.8 110 66.2C110.5 66.6 111.2 66.8 111.9 66.8C112.7 66.8 113.3 66.6 113.9 66.2C114.4 65.8 114.8 65.2 115.1 64.5C115.4 63.8 115.5 63.1 115.5 62.3C115.5 61.6 115.4 60.8 115.1 60.1C114.8 59.4 114.4 58.8 113.9 58.4C113.3 57.9 112.7 57.7 111.9 57.7Z" fill="#E01F26"></path>
    <path d="M121.9 68.2V49.1C121.9 48.4 122.1 47.8 122.5 47.3C122.9 46.8 123.5 46.6 124.1 46.6C124.5 46.6 124.9 46.7 125.3 46.9C125.6 47.1 125.9 47.4 126.1 47.8C126.3 48.2 126.4 48.6 126.4 49.1V55.2C127 54.7 127.6 54.3 128.4 54.1C129.1 53.8 129.9 53.7 130.7 53.7C132.2 53.7 133.5 54.1 134.6 55C135.7 55.8 136.5 56.9 137.1 58.3C137.7 59.7 137.9 61.1 137.9 62.6C137.9 64 137.6 65.4 137 66.7C136.4 68 135.5 69 134.4 69.9C133.3 70.7 132 71.1 130.6 71.1C129.8 71.1 129 70.9 128.2 70.6C127.4 70.2 126.9 69.7 126.5 69.1C126.2 70.3 125.4 71 124.3 71C123.6 71 123.1 70.8 122.7 70.3C122.1 69.6 121.9 69 121.9 68.2ZM126.3 62.1C126.3 63.3 126.6 64.4 127.2 65.3C127.8 66.3 128.7 66.7 129.8 66.7C130.5 66.7 131.2 66.5 131.7 66C132.2 65.6 132.6 65 132.9 64.3C133.2 63.6 133.3 62.9 133.3 62.1C133.3 61.4 133.2 60.6 132.9 59.9C132.6 59.2 132.2 58.6 131.7 58.2C131.2 57.7 130.5 57.5 129.8 57.5C129 57.5 128.4 57.7 127.9 58.1C127.4 58.5 127 59.1 126.7 59.7C126.5 60.6 126.3 61.4 126.3 62.1Z" fill="#E01F26"></path>
    <path d="M141.9 47.1C142.3 47.1 142.8 47.2 143.1 47.5C143.5 47.7 143.8 48 144 48.4C144.2 48.8 144.3 49.2 144.3 49.6C144.3 50.3 144.1 50.9 143.6 51.4C143.1 51.9 142.5 52.2 141.8 52.2C141.1 52.2 140.6 51.9 140 51.4C139.5 50.9 139.2 50.3 139.2 49.6C139.2 49 139.5 48.4 140 47.9C140.6 47.3 141.2 47.1 141.9 47.1ZM139.7 68.2V56.3C139.7 55.6 139.9 55 140.3 54.5C140.7 54 141.2 53.8 141.9 53.8C142.3 53.8 142.7 53.9 143.1 54.1C143.4 54.3 143.7 54.6 143.9 55C144.1 55.4 144.2 55.8 144.2 56.3V68.2C144.2 68.7 144.1 69.1 143.9 69.5C143.7 69.9 143.4 70.2 143.1 70.4C142.8 70.6 142.4 70.7 141.9 70.7C141.2 70.7 140.7 70.5 140.3 70C139.9 69.6 139.7 69 139.7 68.2Z" fill="#E01F26"></path>
    <path d="M146.6 68.2V56.3C146.6 55.6 146.8 55 147.2 54.5C147.6 54 148.1 53.8 148.8 53.8C149.4 53.8 149.8 53.9 150.2 54.2C150.6 54.5 150.8 54.9 150.9 55.4C151.8 54.2 153.2 53.6 155.2 53.6C156.4 53.6 157.4 53.8 158.4 54.3C159.3 54.8 160.1 55.5 160.6 56.4C161.1 57.3 161.4 58.4 161.4 59.6V68.2C161.4 68.7 161.3 69.1 161.1 69.5C160.9 69.9 160.6 70.2 160.3 70.4C160 70.6 159.6 70.7 159.1 70.7C158.4 70.7 157.9 70.5 157.5 70C157.1 69.5 156.9 68.9 156.9 68.2V60.4C156.9 59.4 156.6 58.6 156.1 58.1C155.6 57.6 154.9 57.3 154 57.3C153.4 57.3 152.9 57.4 152.5 57.7C152.1 58 151.7 58.3 151.5 58.8C151.3 59.3 151.2 59.8 151.2 60.4V68.2C151.2 68.7 151.1 69.1 150.9 69.5C150.7 69.9 150.4 70.2 150.1 70.4C149.8 70.6 149.4 70.7 148.9 70.7C148.2 70.7 147.7 70.5 147.3 70C146.8 69.6 146.6 69 146.6 68.2Z" fill="#E01F26"></path>
    <path d="M179.2 56.7V67.8C179.2 68.7 179.1 69.4 178.8 69.9C178.6 70.4 178 70.7 177 70.7C176.4 70.7 175.9 70.5 175.6 70.2C175.3 69.9 175 69.4 174.9 68.8C173.7 70.2 172.3 70.9 170.6 70.9C169.2 70.9 168 70.5 166.8 69.8C165.7 69.1 164.8 68 164.1 66.7C163.5 65.4 163.1 63.9 163.1 62.3C163.1 60.7 163.4 59.3 164.1 57.9C164.8 56.6 165.7 55.5 166.8 54.8C167.9 54 169.2 53.7 170.5 53.7C171.3 53.7 172.1 53.9 172.9 54.2C173.7 54.5 174.3 55.1 174.8 55.7C174.9 55.2 175.1 54.7 175.5 54.4C175.9 54 176.4 53.9 176.9 53.9C177.8 53.9 178.4 54.2 178.7 54.7C179.1 55.1 179.2 55.9 179.2 56.7ZM167.7 62.3C167.7 63.1 167.8 63.8 168.1 64.5C168.4 65.2 168.8 65.8 169.3 66.2C169.8 66.6 170.5 66.8 171.2 66.8C172.3 66.8 173.1 66.3 173.8 65.4C174.4 64.5 174.7 63.4 174.7 62.2C174.7 61.5 174.6 60.7 174.3 60C174 59.3 173.6 58.7 173.1 58.3C172.6 57.9 171.9 57.6 171.2 57.6C170.5 57.6 169.8 57.8 169.3 58.3C168.8 58.7 168.4 59.3 168.1 60C167.9 60.8 167.7 61.5 167.7 62.3Z" fill="#E01F26"></path>
    <path d="M81.4 60.5L66.7 42.6C73.8 38.8 78.9 31.7 78.9 22.7C78.8 10 68.5 0 56 0C44 0 33.4 10.2 33.4 22.5C33.4 23.7 33.3 43.6 33.3 46.2C33.3 52.4 28.3 56.6 22.9 56.6C17.2 56.6 12.1 52.1 12.1 46.2C12.1 45.4 12.2 8.7 12.2 8.7C12.2 5.3 9.5 2.6 6.1 2.6C2.8 2.6 0 5.4 0 8.7V46.2C0 59.5 10.5 68.8 22.9 68.8C35.4 68.8 45.6 58.3 45.6 45V22.7C45.6 16.7 50.2 12.2 56 12.1C62 12.1 66.7 16.6 66.6 22.6C66.5 28.6 62.1 33.3 56.3 33.3C50.4 33.3 48.5 39.7 51.2 43C53.4 45.7 72 68.3 72 68.3C73.2 69.8 75 70.5 76.7 70.5C78.1 70.5 79.5 70 80.6 69.1C83.2 67 83.6 63.1 81.4 60.5Z" fill="#E01F26"></path>
  </g>
  <defs>
    <clipPath id="clip0_8_21">
      <rect width="209.7" height="70.9" fill="white"></rect>
    </clipPath>
  </defs>
</svg>
