<?xml version="1.0" encoding="UTF-8"?>
<svg xmlns="http://www.w3.org/2000/svg" width="388" height="131" viewBox="0 0 388 131" fill="none">
  <g clip-path="url(#clip0_17_155)">
    <path d="M161.2 66V45.5C161.2 44.1 161.6 43 162.4 42.2C163.2 41.4 164.2 41 165.5 41C166.8 41 167.8 41.4 168.6 42.2C169.4 43 169.8 44.1 169.8 45.5V65.6C169.8 67.4 170.2 69 170.9 70.4C171.6 71.8 172.6 73 174 73.8C175.4 74.6 176.9 75.1 178.7 75.1C181.3 75.1 183.4 74.2 185 72.3C186.7 70.4 187.5 68.2 187.5 65.6V45.5C187.5 44.1 187.9 43 188.7 42.2C189.5 41.4 190.5 41 191.8 41C193.1 41 194.1 41.4 194.9 42.2C195.7 43 196.1 44.1 196.1 45.5V66C196.1 68.4 195.7 70.6 194.8 72.6C193.9 74.7 192.6 76.5 191 78C189.4 79.6 187.5 80.8 185.4 81.6C183.3 82.5 181 82.9 178.7 82.9C175.5 82.9 172.6 82.2 169.9 80.7C167.2 79.2 165.1 77.2 163.5 74.6C161.9 72.1 161.2 69.2 161.2 66Z" fill="white"></path>
    <path d="M200.6 78V56C200.6 54.6 201 53.5 201.7 52.7C202.5 51.8 203.5 51.4 204.7 51.4C205.8 51.4 206.6 51.7 207.3 52.2C208 52.7 208.4 53.5 208.5 54.4C210.1 52.1 212.8 51 216.5 51C218.7 51 220.6 51.4 222.3 52.3C224 53.2 225.4 54.5 226.3 56.1C227.3 57.8 227.8 59.8 227.8 62.1V78C227.8 78.9 227.6 79.7 227.3 80.4C226.9 81.1 226.4 81.6 225.8 82C225.2 82.4 224.4 82.6 223.7 82.6C222.5 82.6 221.5 82.2 220.7 81.3C219.9 80.4 219.6 79.3 219.6 78V63.6C219.6 61.8 219.1 60.3 218.1 59.4C217.1 58.4 215.8 58 214.2 58C213.1 58 212.2 58.2 211.4 58.7C210.6 59.2 210 59.9 209.6 60.7C209.2 61.5 209 62.5 209 63.6V78C209 78.9 208.8 79.7 208.5 80.4C208.1 81.1 207.6 81.6 207 82C206.4 82.4 205.7 82.6 204.9 82.6C203.7 82.6 202.7 82.2 201.9 81.3C201 80.5 200.6 79.4 200.6 78Z" fill="white"></path>
    <path d="M236.6 39C237.4 39 238.2 39.2 238.9 39.6C239.6 40 240.2 40.6 240.6 41.3C241 42 241.2 42.7 241.2 43.5C241.2 44.8 240.7 45.9 239.8 46.9C238.9 47.8 237.8 48.3 236.5 48.3C235.3 48.3 234.2 47.8 233.3 46.8C232.4 45.8 231.9 44.7 231.9 43.5C231.9 42.3 232.4 41.3 233.3 40.3C234.3 39.4 235.4 39 236.6 39ZM232.5 78V56C232.5 54.6 232.9 53.5 233.6 52.7C234.4 51.8 235.4 51.4 236.6 51.4C237.4 51.4 238.1 51.6 238.7 52C239.3 52.4 239.8 52.9 240.2 53.6C240.6 54.3 240.7 55.1 240.7 56V78C240.7 78.9 240.5 79.7 240.2 80.4C239.8 81.1 239.3 81.6 238.7 82C238.1 82.4 237.4 82.6 236.6 82.6C235.4 82.6 234.4 82.2 233.6 81.3C232.8 80.5 232.5 79.4 232.5 78Z" fill="white"></path>
    <path d="M251.8 79.2L243.5 57.9C243.2 57 243 56.2 243 55.5C243 54.2 243.4 53.2 244.3 52.5C245.1 51.8 246.2 51.4 247.4 51.4C249.2 51.4 250.4 52.4 251.1 54.3L256.4 70.6H256.5L261.8 54.3C262.4 52.3 263.6 51.4 265.5 51.4C266.7 51.4 267.7 51.8 268.5 52.5C269.3 53.2 269.8 54.2 269.8 55.5C269.8 56.2 269.6 57 269.3 57.9L261 79.2C260.5 80.4 260 81.3 259.4 81.8C258.8 82.3 257.8 82.6 256.5 82.6C255.2 82.6 254.3 82.3 253.7 81.8C252.8 81.2 252.3 80.4 251.8 79.2Z" fill="white"></path>
    <path d="M296.2 69.8H278.6C278.9 71.8 279.7 73.3 281.2 74.3C282.6 75.3 284.4 75.8 286.4 75.8C287.7 75.8 288.7 75.6 289.6 75.2C290.5 74.8 291.6 74.3 292.9 73.5C294.2 72.8 295.2 72.4 295.8 72.4C296.4 72.4 296.9 72.6 297.4 72.9C297.9 73.2 298.4 73.7 298.7 74.2C299 74.7 299.2 75.3 299.2 75.9C299.2 76.8 298.8 77.6 298 78.5C297.2 79.3 296.2 80.1 294.8 80.8C293.5 81.5 292 82 290.3 82.4C288.6 82.8 287.1 83 285.6 83C282.6 83 279.9 82.3 277.5 80.9C275.1 79.5 273.3 77.6 272 75.2C270.7 72.8 270.1 70.1 270.1 67C270.1 64.9 270.5 62.9 271.2 61C271.9 59.1 273 57.3 274.3 55.8C275.6 54.3 277.2 53.1 279 52.3C280.8 51.4 282.8 51 284.9 51C287 51 289.1 51.4 290.9 52.3C292.8 53.2 294.3 54.4 295.6 55.8C296.9 57.3 297.9 58.9 298.6 60.7C299.3 62.5 299.7 64.3 299.7 66C299.8 68.5 298.6 69.8 296.2 69.8ZM278.4 64.2H291.6C291.4 62.3 290.7 60.8 289.5 59.6C288.3 58.4 286.8 57.9 285 57.9C283.2 57.9 281.7 58.5 280.6 59.7C279.3 60.9 278.6 62.4 278.4 64.2Z" fill="white"></path>
    <path d="M302.6 78V55.5C302.6 54.2 303 53.2001 303.9 52.4001C304.7 51.7001 305.7 51.3 306.9 51.3C309.6 51.3 310.9 52.5 310.9 54.8H311C311.8 53.6 312.7 52.7001 313.6 52.2001C314.5 51.7001 315.6 51.4001 316.8 51.4001C317.9 51.4001 318.8 51.8 319.6 52.6C320.4 53.4 320.8 54.5001 320.8 55.9001C320.8 56.7001 320.6 57.4 320.2 57.8C319.8 58.2 319.2 58.6001 318.5 58.9001C317.8 59.2001 316.9 59.5001 315.9 59.9001C314.3 60.6001 313 61.4 312.2 62.1C311.4 62.8 310.9 63.9001 310.9 65.4001V78C310.9 78.9 310.7 79.7001 310.4 80.4001C310 81.1001 309.5 81.6 308.9 82C308.3 82.4 307.6 82.6 306.8 82.6C305.6 82.6 304.6 82.2001 303.8 81.3001C303 80.5001 302.6 79.4 302.6 78Z" fill="white"></path>
    <path d="M342.7 57C342.7 58 342.4 58.8 341.7 59.6C341.1 60.3 340.3 60.7001 339.3 60.7001C338.9 60.7001 338.1 60.4001 336.8 59.9001C335.6 59.4001 334.7 59.0001 334 58.7001C333.3 58.4001 332.6 58.3 331.8 58.3C331 58.3 330.3 58.5001 329.8 58.9001C329.3 59.3001 329 59.9 329 60.6C329 61.4 329.8 62.2001 331.5 62.9001C333.1 63.6001 334.9 64.4 336.7 65.1C338.5 65.9 340.1 66.9 341.4 68.1C342.7 69.4 343.3 71.1 343.3 73.2C343.3 75 342.8 76.7 341.8 78.2C340.8 79.7 339.4 80.8 337.6 81.7C335.8 82.6 333.7 83 331.4 83C329.8 83 328.1 82.7 326.3 82.2C324.5 81.6 323 80.9001 321.7 79.9001C320.5 78.9001 319.9 77.8 319.9 76.7C319.9 76 320.2 75.1001 320.9 74.3001C321.6 73.4001 322.4 73 323.5 73C324.2 73 324.9 73.1001 325.5 73.4001C326.1 73.6001 326.8 74 327.6 74.5C328.5 75 329.2 75.3 329.8 75.6C330.4 75.8 331.2 75.9001 332.1 75.9001C333.3 75.9001 334.2 75.7001 334.6 75.3001C335.1 74.9001 335.3 74.3 335.3 73.5C335.3 72.7001 334.5 71.9001 332.9 71.3001C331.3 70.6001 329.6 69.9 327.7 69.1C325.8 68.3 324.2 67.3 322.9 66C321.6 64.7 321 63.0001 321 60.9001C321 59.0001 321.5 57.3001 322.4 55.9001C323.4 54.4001 324.7 53.3 326.4 52.5C328.1 51.7 330 51.3 332.2 51.3C333.7 51.3 335.3 51.5 336.9 52C338.5 52.5 339.8 53.1 340.9 54C342.1 54.7 342.7 55.7 342.7 57Z" fill="white"></path>
    <path d="M374.6 56.7999V77.3C374.6 78.9 374.4 80.1999 373.9 81.1999C373.4 82.1999 372.3 82.6999 370.6 82.6999C369.5 82.6999 368.6 82.4 368 81.8C367.4 81.2 366.9 80.2999 366.6 79.1999C364.4 81.7999 361.8 83.0999 358.7 83.0999C356.2 83.0999 353.8 82.3999 351.7 81.0999C349.6 79.6999 348 77.8 346.8 75.4C345.6 73 345 70.1999 345 67.1999C345 64.2999 345.6 61.5999 346.8 59.0999C348 56.5999 349.7 54.6999 351.8 53.2999C353.9 51.8999 356.2 51.2 358.7 51.2C360.3 51.2 361.7 51.5 363.1 52.2C364.5 52.8 365.7 53.8 366.6 55C366.7 54 367.1 53.2 367.9 52.5C368.7 51.9 369.5 51.5 370.5 51.5C372.3 51.5 373.4 52 373.8 53C374.4 53.9 374.6 55.1999 374.6 56.7999ZM353.4 67C353.4 68.4 353.6 69.7 354.1 71C354.6 72.2999 355.3 73.2999 356.3 74.0999C357.3 74.8999 358.5 75.3 359.9 75.3C361.9 75.3 363.5 74.5 364.6 72.8C365.7 71.1 366.3 69.2 366.3 67C366.3 65.6 366.1 64.3 365.6 63C365.1 61.7 364.4 60.5999 363.4 59.7999C362.4 58.9999 361.3 58.5999 359.9 58.5999C358.5 58.5999 357.3 58.9999 356.3 59.7999C355.3 60.5999 354.6 61.7 354.1 63C353.6 64.3 353.4 65.7 353.4 67Z" fill="white"></path>
    <path d="M379.2 78V42.6C379.2 41.2 379.6 40.1 380.3 39.3C381.1 38.5 382.1 38 383.3 38C384.1 38 384.8 38.2 385.4 38.6C386 39 386.5 39.5 386.9 40.2C387.3 40.9 387.4 41.7 387.4 42.6V78C387.4 78.9 387.2 79.7 386.9 80.4C386.5 81.1 386 81.6 385.4 82C384.8 82.4 384.1 82.6 383.3 82.6C382.1 82.6 381.1 82.2 380.3 81.3C379.6 80.5 379.2 79.4 379.2 78Z" fill="white"></path>
    <path d="M161.5 126.2V93.9C161.5 92.5 161.9 91.4 162.6 90.6C163.4 89.8 164.5 89.4 165.9 89.4H176C180.6 89.4 184.1 90.5 186.6 92.6C189.1 94.7 190.3 98 190.3 102.4C190.3 104 190 105.4 189.5 106.6C189 107.9 188.2 108.9 187.2 109.8C186.2 110.7 185.1 111.4 183.8 112C182.5 112.6 181.1 113 179.6 113.2L189.4 123.6C190.1 124.4 190.5 125.3 190.5 126.1C190.5 127.3 190.1 128.3 189.3 129.2C188.5 130.1 187.5 130.5 186.3 130.5C184.9 130.5 183.8 130 183 129L170.2 113.5H170.1V126C170.1 127.4 169.7 128.5 168.9 129.3C168.1 130.1 167.1 130.5 165.8 130.5C164.5 130.5 163.5 130.1 162.7 129.3C161.9 128.7 161.5 127.6 161.5 126.2ZM170.1 97.4V107.6H176C177.6 107.6 178.9 107.1 179.9 106.2C180.9 105.3 181.4 104 181.4 102.5C181.4 100.9 180.9 99.6 179.9 98.8C178.9 97.9 177.6 97.5 176 97.5H170.1V97.4Z" fill="white"></path>
    <path d="M206.8 99.1C208.9 99.1 210.9 99.5 212.8 100.4C214.6 101.3 216.2 102.5 217.5 103.9C218.8 105.4 219.8 107.1 220.6 109C221.3 110.9 221.7 112.9 221.7 115.1C221.7 117.3 221.3 119.3 220.6 121.2C219.9 123.1 218.9 124.8 217.6 126.3C216.3 127.8 214.7 128.9 212.9 129.8C211 130.6 209 131.1 206.9 131.1C204 131.1 201.5 130.4 199.2 129C196.9 127.6 195.2 125.6 193.9 123.2C192.7 120.8 192 118.1 192 115.2C192 113.1 192.4 111.1 193.1 109.2C193.8 107.3 194.8 105.5 196.2 104C197.5 102.5 199.1 101.3 200.9 100.4C202.7 99.5 204.7 99.1 206.8 99.1ZM206.8 106.6C205.4 106.6 204.2 107 203.2 107.8C202.2 108.6 201.5 109.7 201 111C200.5 112.3 200.3 113.7 200.3 115C200.3 116.4 200.5 117.7 201 119C201.5 120.3 202.2 121.3 203.2 122.1C204.2 122.9 205.4 123.3 206.8 123.3C208.2 123.3 209.4 122.9 210.4 122.1C211.4 121.3 212.1 120.3 212.6 119C213.1 117.7 213.3 116.4 213.3 115C213.3 113.6 213.1 112.3 212.6 111C212.1 109.7 211.4 108.6 210.4 107.8C209.4 107.1 208.2 106.6 206.8 106.6Z" fill="white"></path>
    <path d="M225.2 126.1V90.7C225.2 89.3 225.6 88.2 226.3 87.4C227.1 86.5 228.1 86.1 229.3 86.1C230.1 86.1 230.8 86.3 231.5 86.7C232.1 87.1 232.6 87.6 233 88.3C233.4 89 233.5 89.8 233.5 90.7V102C234.5 101.1 235.8 100.4 237.1 99.9C238.5 99.4 239.9 99.2 241.3 99.2C244.1 99.2 246.5 100 248.6 101.5C250.6 103.1 252.1 105.1 253.2 107.6C254.2 110.1 254.7 112.8 254.7 115.6C254.7 118.2 254.1 120.7 253 123.1C251.9 125.5 250.3 127.4 248.2 128.9C246.1 130.4 243.7 131.1 241.1 131.1C239.6 131.1 238.1 130.8 236.7 130.1C235.3 129.4 234.2 128.5 233.5 127.3C232.9 129.6 231.6 130.7 229.3 130.7C228.1 130.7 227.1 130.3 226.3 129.4C225.6 128.5 225.2 127.4 225.2 126.1ZM233.5 114.8C233.5 117 234.1 119 235.2 120.8C236.3 122.6 237.9 123.4 240 123.4C241.4 123.4 242.5 123 243.5 122.2C244.5 121.4 245.2 120.3 245.7 119.1C246.2 117.8 246.4 116.5 246.4 115.1C246.4 113.7 246.2 112.4 245.7 111.1C245.2 109.8 244.5 108.7 243.5 107.9C242.5 107.1 241.3 106.7 240 106.7C238.6 106.7 237.4 107.1 236.4 107.9C235.4 108.7 234.7 109.7 234.2 110.9C233.7 112.1 233.5 113.4 233.5 114.8Z" fill="white"></path>
    <path d="M262.2 87C263 87 263.8 87.2 264.5 87.6C265.2 88 265.8 88.6 266.2 89.3C266.6 90 266.8 90.7 266.8 91.5C266.8 92.8 266.3 93.9 265.4 94.8C264.5 95.7 263.4 96.2 262.1 96.2C260.9 96.2 259.8 95.7 258.9 94.7C257.9 93.7 257.5 92.6 257.5 91.4C257.5 90.2 258 89.2 258.9 88.2C259.9 87.5 261 87 262.2 87ZM258.1 126.1V104C258.1 102.6 258.5 101.5 259.2 100.7C260 99.8 260.9 99.4 262.2 99.4C263 99.4 263.7 99.6 264.3 100C264.9 100.4 265.4 100.9 265.8 101.6C266.2 102.3 266.3 103.1 266.3 104V126.1C266.3 127 266.1 127.8 265.8 128.5C265.4 129.2 265 129.7 264.3 130.1C263.7 130.5 263 130.7 262.2 130.7C261 130.7 260 130.3 259.2 129.4C258.4 128.5 258.1 127.4 258.1 126.1Z" fill="white"></path>
    <path d="M270.9 126.1V104C270.9 102.6 271.3 101.5 272 100.7C272.8 99.8 273.7 99.4 275 99.4C276.1 99.4 276.9 99.7 277.6 100.2C278.3 100.7 278.7 101.5 278.8 102.4C280.4 100.1 283.1 99 286.8 99C289 99 290.9 99.4 292.6 100.3C294.3 101.2 295.7 102.5 296.6 104.1C297.6 105.8 298.1 107.8 298.1 110.1V125.9C298.1 126.8 297.9 127.6 297.6 128.3C297.2 129 296.8 129.5 296.1 129.9C295.5 130.3 294.8 130.5 294 130.5C292.8 130.5 291.8 130.1 291 129.2C290.2 128.4 289.9 127.2 289.9 125.9V111.5C289.9 109.6 289.4 108.2 288.4 107.3C287.4 106.3 286.1 105.9 284.5 105.9C283.4 105.9 282.5 106.1 281.7 106.6C280.9 107.1 280.3 107.8 279.9 108.6C279.5 109.4 279.3 110.4 279.3 111.5V125.9C279.3 126.8 279.1 127.6 278.8 128.3C278.4 129 277.9 129.5 277.3 129.9C276.7 130.3 276 130.5 275.2 130.5C274 130.5 273 130.1 272.2 129.2C271.3 128.5 270.9 127.4 270.9 126.1Z" fill="white"></path>
    <path d="M331.2 104.8V125.2C331.2 126.8 331 128.1 330.5 129.1C330.1 130.1 328.9 130.6 327.2 130.6C326.1 130.6 325.2 130.3 324.6 129.7C324 129.1 323.5 128.2 323.2 127.1C321 129.7 318.4 131 315.3 131C312.8 131 310.4 130.3 308.3 129C306.2 127.6 304.6 125.7 303.4 123.3C302.2 120.9 301.6 118.1 301.6 115.1C301.6 112.2 302.2 109.5 303.4 107C304.6 104.5 306.3 102.6 308.4 101.2C310.5 99.8 312.8 99.1 315.3 99.1C316.8 99.1 318.3 99.4 319.7 100.1C321.1 100.7 322.3 101.7 323.2 102.9C323.3 101.9 323.7 101.1 324.5 100.4C325.3 99.8 326.1 99.4 327.1 99.4C328.9 99.4 330 99.9 330.4 100.9C330.9 101.9 331.2 103.2 331.2 104.8ZM309.9 115.1C309.9 116.5 310.1 117.8 310.6 119.1C311.1 120.4 311.8 121.4 312.8 122.2C313.8 123 315 123.4 316.4 123.4C318.4 123.4 320 122.6 321.1 120.9C322.2 119.2 322.8 117.3 322.8 115.1C322.8 113.7 322.6 112.4 322.1 111.1C321.6 109.8 320.9 108.7 319.9 107.9C318.9 107.1 317.8 106.7 316.4 106.7C315 106.7 313.8 107.1 312.8 107.9C311.8 108.7 311.1 109.8 310.6 111.1C310.2 112.4 309.9 113.7 309.9 115.1Z" fill="white"></path>
    <path d="M150.5 111.8L123.2 78.8C136.3 71.7 145.7 58.7 145.7 42C145.7 18.5 126.6 0 103.5 0C81.2 0 61.7 18.8 61.7 41.6C61.7 43.9 61.5 80.6 61.6 85.4C61.7 96.8 52.4 104.7 42.3 104.7C31.7 104.7 22.4 96.4 22.4 85.4C22.4 83.9 22.7 16.1 22.7 16.1C22.7 9.8 17.7 4.8 11.4 4.8C5.1 4.8 0 9.9 0 16.2V85.5C0 110.1 19.5 127.2 42.3 127.2C65.4 127.2 84.3 107.8 84.3 83.3V41.9C84.3 30.9 92.9 22.4 103.5 22.4C114.5 22.3 123.3 30.7 123.2 41.9C123 53.1 114.9 61.7 104.1 61.7C93.2 61.6 89.6 73.4 94.7 79.7C98.7 84.6 133 126.3 133 126.3C135.2 129 138.5 130.4 141.7 130.4C144.2 130.4 146.8 129.5 148.9 127.8C153.8 123.8 154.5 116.6 150.5 111.8Z" fill="white"></path>
  </g>
  <defs>
    <clipPath id="clip0_17_155">
      <rect width="387.5" height="131" fill="white"></rect>
    </clipPath>
  </defs>
</svg>
